999
dxfrw 0.6.3
  0
SECTION
  2
HEADER
  9
$ACADVER
  1
AC1021
  9
$DWGCODEPAGE
  3
ANSI_1252
  9
$INSBASE
 10
0
 20
0
 30
0
  9
$EXTMIN
 10
8.385071460055046
 20
7.118103044277415
 30
0
  9
$EXTMAX
 10
358.126414389486
 20
142.234751134793
 30
0
  9
$LIMMIN
 10
0
 20
0
  9
$LIMMAX
 10
420
 20
297
  9
$ORTHOMODE
 70
    0
  9
$REGENMODE
 70
    1
  9
$FILLMODE
 70
    1
  9
$QTEXTMODE
 70
    0
  9
$MIRRTEXT
 70
    0
  9
$LTSCALE
 40
1
  9
$ATTMODE
 70
    0
  9
$TEXTSIZE
 40
2.5
  9
$TRACEWID
 40
15.68
  9
$TEXTSTYLE
  7
STANDARD
  9
$CLAYER
  8
0
  9
$CELTYPE
  6
BYLAYER
  9
$CECOLOR
 62
  256
  9
$CELTSCALE
 40
1
  9
$DISPSILH
 70
    0
  9
$DIMSCALE
 40
2.5
  9
$DIMASZ
 40
2.5
  9
$DIMEXO
 40
0.625
  9
$DIMDLI
 40
3.75
  9
$DIMRND
 40
0
  9
$DIMDLE
 40
0
  9
$DIMEXE
 40
1.25
  9
$DIMTP
 40
0
  9
$DIMTM
 40
0
  9
$DIMTXT
 40
2.5
  9
$DIMCEN
 40
2.5
  9
$DIMTSZ
 40
0
  9
$DIMTOL
 70
    0
  9
$DIMLIM
 70
    0
  9
$DIMTIH
 70
    0
  9
$DIMTOH
 70
    0
  9
$DIMSE1
 70
    0
  9
$DIMSE2
 70
    0
  9
$DIMTAD
 70
    1
  9
$DIMZIN
 70
    8
  9
$DIMBLK
  1

  9
$DIMASO
 70
    1
  9
$DIMSHO
 70
    1
  9
$DIMPOST
  1

  9
$DIMAPOST
  1

  9
$DIMALT
 70
    0
  9
$DIMALTD
 70
    3
  9
$DIMALTF
 40
0.03937
  9
$DIMLFAC
 40
1
  9
$DIMTOFL
 70
    1
  9
$DIMTVP
 40
0
  9
$DIMTIX
 70
    0
  9
$DIMSOXD
 70
    0
  9
$DIMSAH
 70
    0
  9
$DIMBLK1
  1

  9
$DIMBLK2
  1

  9
$DIMSTYLE
  2
STANDARD
  9
$DIMCLRD
 70
    0
  9
$DIMCLRE
 70
    0
  9
$DIMCLRT
 70
    0
  9
$DIMTFAC
 40
1
  9
$DIMGAP
 40
0.625
  9
$DIMJUST
 70
    0
  9
$DIMSD1
 70
    0
  9
$DIMSD2
 70
    0
  9
$DIMTOLJ
 70
    0
  9
$DIMTZIN
 70
    8
  9
$DIMALTZ
 70
    0
  9
$DIMALTTZ
 70
    0
  9
$DIMUPT
 70
    0
  9
$DIMDEC
 70
    2
  9
$DIMTDEC
 70
    2
  9
$DIMALTU
 70
    2
  9
$DIMALTTD
 70
    3
  9
$DIMTXSTY
  7
STANDARD
  9
$DIMAUNIT
 70
    0
  9
$DIMADEC
 70
    0
  9
$DIMALTRND
 40
0
  9
$DIMAZIN
 70
    0
  9
$DIMDSEP
 70
   44
  9
$DIMATFIT
 70
    3
  9
$DIMFRAC
 70
    0
  9
$DIMLDRBLK
  1
STANDARD
  9
$DIMLUNIT
 70
    2
  9
$DIMLWD
 70
   -2
  9
$DIMLWE
 70
   -2
  9
$DIMTMOVE
 70
    0
  9
$DIMFXL
 40
1
  9
$DIMFXLON
 70
    0
  9
$DIMJOGANG
 40
0.7854
  9
$DIMTFILL
 70
    0
  9
$DIMTFILLCLR
 70
    0
  9
$DIMARCSYM
 70
    0
  9
$DIMLTYPE
  6

  9
$DIMLTEX1
  6

  9
$DIMLTEX2
  6

  9
$LUNITS
 70
    2
  9
$LUPREC
 70
    4
  9
$SKETCHINC
 40
1
  9
$FILLETRAD
 40
0
  9
$AUNITS
 70
    0
  9
$AUPREC
 70
    2
  9
$MENU
  1
.
  9
$ELEVATION
 40
0
  9
$PELEVATION
 40
0
  9
$THICKNESS
 40
0
  9
$LIMCHECK
 70
    0
  9
$CHAMFERA
 40
0
  9
$CHAMFERB
 40
0
  9
$CHAMFERC
 40
0
  9
$CHAMFERD
 40
0
  9
$SKPOLY
 70
    0
  9
$USRTIMER
 70
    1
  9
$ANGBASE
 50
0
  9
$ANGDIR
 70
    0
  9
$PDMODE
 70
   34
  9
$PDSIZE
 40
0
  9
$PLINEWID
 40
0
  9
$SPLFRAME
 70
    0
  9
$SPLINETYPE
 70
    2
  9
$SPLINESEGS
 70
    8
  9
$HANDSEED
  5
20000
  9
$SURFTAB1
 70
    6
  9
$SURFTAB2
 70
    6
  9
$SURFTYPE
 70
    6
  9
$SURFU
 70
    6
  9
$SURFV
 70
    6
  9
$UCSBASE
  2

  9
$UCSNAME
  2

  9
$UCSORG
 10
0
 20
0
 30
0
  9
$UCSXDIR
 10
1
 20
0
 30
0
  9
$UCSYDIR
 10
0
 20
1
 30
0
  9
$UCSORTHOREF
  2

  9
$UCSORTHOVIEW
 70
    0
  9
$UCSORGTOP
 10
0
 20
0
 30
0
  9
$UCSORGBOTTOM
 10
0
 20
0
 30
0
  9
$UCSORGLEFT
 10
0
 20
0
 30
0
  9
$UCSORGRIGHT
 10
0
 20
0
 30
0
  9
$UCSORGFRONT
 10
0
 20
0
 30
0
  9
$UCSORGBACK
 10
0
 20
0
 30
0
  9
$PUCSBASE
  2

  9
$PUCSNAME
  2

  9
$PUCSORG
 10
0
 20
0
 30
0
  9
$PUCSXDIR
 10
1
 20
0
 30
0
  9
$PUCSYDIR
 10
0
 20
1
 30
0
  9
$PUCSORTHOREF
  2

  9
$PUCSORTHOVIEW
 70
    0
  9
$PUCSORGTOP
 10
0
 20
0
 30
0
  9
$PUCSORGBOTTOM
 10
0
 20
0
 30
0
  9
$PUCSORGLEFT
 10
0
 20
0
 30
0
  9
$PUCSORGRIGHT
 10
0
 20
0
 30
0
  9
$PUCSORGFRONT
 10
0
 20
0
 30
0
  9
$PUCSORGBACK
 10
0
 20
0
 30
0
  9
$USERI1
 70
    0
  9
$USERI2
 70
    0
  9
$USERI3
 70
    0
  9
$USERI4
 70
    0
  9
$USERI5
 70
    0
  9
$USERR1
 40
0
  9
$USERR2
 40
0
  9
$USERR3
 40
0
  9
$USERR4
 40
0
  9
$USERR5
 40
0
  9
$WORLDVIEW
 70
    1
  9
$SHADEDGE
 70
    3
  9
$SHADEDIF
 70
   70
  9
$TILEMODE
 70
    1
  9
$MAXACTVP
 70
   64
  9
$PINSBASE
 10
0
 20
0
 30
0
  9
$PLIMCHECK
 70
    0
  9
$PEXTMIN
 10
0
 20
0
 30
0
  9
$PEXTMAX
 10
0
 20
0
 30
0
  9
$SNAPSTYLE
 70
    0
  9
$PLIMMIN
 10
0
 20
0
  9
$PLIMMAX
 10
0.21
 20
0.297
  9
$UNITMODE
 70
    0
  9
$VISRETAIN
 70
    1
  9
$PLINEGEN
 70
    0
  9
$PSLTSCALE
 70
    1
  9
$TREEDEPTH
 70
 3020
  9
$CMLSTYLE
  2
Standard
  9
$CMLJUST
 70
    0
  9
$CMLSCALE
 40
20
  9
$PROXYGRAPHICS
 70
    1
  9
$MEASUREMENT
 70
    1
  9
$CELWEIGHT
370
   -1
  9
$ENDCAPS
280
    0
  9
$JOINSTYLE
280
    0
  9
$LWDISPLAY
290
    0
  9
$INSUNITS
 70
    4
  9
$HYPERLINKBASE
  1

  9
$STYLESHEET
  1

  9
$XEDIT
290
    1
  9
$CEPSNTYPE
380
    0
  9
$PSTYLEMODE
290
    1
  9
$EXTNAMES
290
    1
  9
$PSVPSCALE
 40
1
  9
$OLESTARTUP
290
    0
  9
$SORTENTS
280
  127
  9
$INDEXCTL
280
    0
  9
$HIDETEXT
280
    1
  9
$XCLIPFRAME
290
    0
  9
$HALOGAP
280
    0
  9
$OBSCOLOR
 70
  257
  9
$OBSLTYPE
280
    0
  9
$INTERSECTIONDISPLAY
280
    0
  9
$INTERSECTIONCOLOR
 70
  257
  9
$DIMASSOC
280
    1
  9
$PROJECTNAME
  1

  9
$CAMERADISPLAY
290
    0
  9
$LENSLENGTH
 40
50
  9
$CAMERAHEIGHT
 40
0
  9
$STEPSPERSEC
 40
2
  9
$STEPSIZE
 40
50
  9
$3DDWFPREC
 40
2
  9
$PSOLWIDTH
 40
5
  9
$PSOLHEIGHT
 40
80
  9
$LOFTANG1
 40
1.570796326794897
  9
$LOFTANG2
 40
1.570796326794897
  9
$LOFTMAG1
 40
0
  9
$LOFTMAG2
 40
0
  9
$LOFTPARAM
 70
    7
  9
$LOFTNORMALS
280
    1
  9
$LATITUDE
 40
1
  9
$LONGITUDE
 40
1
  9
$NORTHDIRECTION
 40
0
  9
$TIMEZONE
 70
-8000
  9
$LIGHTGLYPHDISPLAY
280
    1
  9
$TILEMODELIGHTSYNCH
280
    1
  9
$SOLIDHIST
280
    1
  9
$SHOWHIST
280
    1
  9
$DWFFRAME
280
    2
  9
$DGNFRAME
280
    0
  9
$REALWORLDSCALE
290
    1
  9
$INTERFERECOLOR
 62
    1
  9
$CSHADOW
280
    0
  9
$SHADOWPLANELOCATION
 40
0
  0
ENDSEC
  0
SECTION
  2
CLASSES
  0
ENDSEC
  0
SECTION
  2
TABLES
  0
TABLE
  2
VPORT
  5
8
330
0
100
AcDbSymbolTable
 70
    1
  0
VPORT
  5
31
330
2
100
AcDbSymbolTableRecord
100
AcDbViewportTableRecord
  2
*ACTIVE
 70
    0
 10
0
 20
0
 11
1
 21
1
 12
313.5341261984786
 22
161.4768031923495
 13
0
 23
0
 14
10
 24
10
 15
10
 25
10
 16
0
 26
0
 36
1
 17
0
 27
0
 37
0
 40
555.0765109737014
 41
1.243636363636364
 42
50
 43
0
 44
0
 50
0
 51
0
 71
    0
 72
  100
 73
    1
 74
    3
 75
    0
 76
    1
 77
    0
 78
    0
281
    0
 65
    1
110
0
120
0
130
0
111
1
121
0
131
0
112
0
122
1
132
0
 79
    0
146
0
348
10020
 60
    7
 61
    5
292
1
282
    1
141
0
142
0
 63
  250
421
3358443
  0
ENDTAB
  0
TABLE
  2
LTYPE
  5
5
330
0
100
AcDbSymbolTable
 70
    4
  0
LTYPE
  5
14
330
5
100
AcDbSymbolTableRecord
100
AcDbLinetypeTableRecord
  2
ByBlock
 70
    0
  3

 72
   65
 73
    0
 40
0
  0
LTYPE
  5
15
330
5
100
AcDbSymbolTableRecord
100
AcDbLinetypeTableRecord
  2
ByLayer
 70
    0
  3

 72
   65
 73
    0
 40
0
  0
LTYPE
  5
16
330
5
100
AcDbSymbolTableRecord
100
AcDbLinetypeTableRecord
  2
Continuous
 70
    0
  3
Solid line
 72
   65
 73
    0
 40
0
  0
LTYPE
  5
32
330
5
100
AcDbSymbolTableRecord
100
AcDbLinetypeTableRecord
  2
DOT
 70
    0
  3
Dot . . . . . . . . . . . . . . . . . . . . . .
 72
   65
 73
    2
 40
6.35
 49
0
 74
    0
 49
-6.35
 74
    0
  0
LTYPE
  5
33
330
5
100
AcDbSymbolTableRecord
100
AcDbLinetypeTableRecord
  2
DOTTINY
 70
    0
  3
Dot (.15x) .....................................
 72
   65
 73
    2
 40
0.9525
 49
0
 74
    0
 49
-0.9525
 74
    0
  0
LTYPE
  5
34
330
5
100
AcDbSymbolTableRecord
100
AcDbLinetypeTableRecord
  2
DOT2
 70
    0
  3
Dot (.5x) .....................................
 72
   65
 73
    2
 40
3.175
 49
0
 74
    0
 49
-3.175
 74
    0
  0
LTYPE
  5
35
330
5
100
AcDbSymbolTableRecord
100
AcDbLinetypeTableRecord
  2
DOTX2
 70
    0
  3
Dot (2x) .  .  .  .  .  .  .  .  .  .  .  .  .
 72
   65
 73
    2
 40
12.7
 49
0
 74
    0
 49
-12.7
 74
    0
  0
LTYPE
  5
36
330
5
100
AcDbSymbolTableRecord
100
AcDbLinetypeTableRecord
  2
DASHED
 70
    0
  3
Dashed _ _ _ _ _ _ _ _ _ _ _ _ _ _ _ _ _
 72
   65
 73
    2
 40
19.05
 49
12.7
 74
    0
 49
-6.35
 74
    0
  0
LTYPE
  5
37
330
5
100
AcDbSymbolTableRecord
100
AcDbLinetypeTableRecord
  2
DASHEDTINY
 70
    0
  3
Dashed (.15x) _ _ _ _ _ _ _ _ _ _ _ _ _ _ _ _ _
 72
   65
 73
    2
 40
2.8575
 49
1.905
 74
    0
 49
-0.9525
 74
    0
  0
LTYPE
  5
38
330
5
100
AcDbSymbolTableRecord
100
AcDbLinetypeTableRecord
  2
DASHED2
 70
    0
  3
Dashed (.5x) _ _ _ _ _ _ _ _ _ _ _ _ _ _ _ _ _
 72
   65
 73
    2
 40
9.524999999999999
 49
6.35
 74
    0
 49
-3.175
 74
    0
  0
LTYPE
  5
39
330
5
100
AcDbSymbolTableRecord
100
AcDbLinetypeTableRecord
  2
DASHEDX2
 70
    0
  3
Dashed (2x) ____  ____  ____  ____  ____  ___
 72
   65
 73
    2
 40
38.09999999999999
 49
25.4
 74
    0
 49
-12.7
 74
    0
  0
LTYPE
  5
3A
330
5
100
AcDbSymbolTableRecord
100
AcDbLinetypeTableRecord
  2
DASHDOT
 70
    0
  3
Dash dot __ . __ . __ . __ . __ . __ . __ . __
 72
   65
 73
    4
 40
25.4
 49
12.7
 74
    0
 49
-6.35
 74
    0
 49
0
 74
    0
 49
-6.35
 74
    0
  0
LTYPE
  5
3B
330
5
100
AcDbSymbolTableRecord
100
AcDbLinetypeTableRecord
  2
DASHDOTTINY
 70
    0
  3
Dash dot (.15x) _._._._._._._._._._._._._._._.
 72
   65
 73
    4
 40
3.81
 49
1.905
 74
    0
 49
-0.9525
 74
    0
 49
0
 74
    0
 49
-0.9525
 74
    0
  0
LTYPE
  5
3C
330
5
100
AcDbSymbolTableRecord
100
AcDbLinetypeTableRecord
  2
DASHDOT2
 70
    0
  3
Dash dot (.5x) _._._._._._._._._._._._._._._.
 72
   65
 73
    4
 40
12.7
 49
6.35
 74
    0
 49
-3.175
 74
    0
 49
0
 74
    0
 49
-3.175
 74
    0
  0
LTYPE
  5
3D
330
5
100
AcDbSymbolTableRecord
100
AcDbLinetypeTableRecord
  2
DASHDOTX2
 70
    0
  3
Dash dot (2x) ____  .  ____  .  ____  .  ___
 72
   65
 73
    4
 40
50.8
 49
25.4
 74
    0
 49
-12.7
 74
    0
 49
0
 74
    0
 49
-12.7
 74
    0
  0
LTYPE
  5
3E
330
5
100
AcDbSymbolTableRecord
100
AcDbLinetypeTableRecord
  2
DIVIDE
 70
    0
  3
Divide ____ . . ____ . . ____ . . ____ . . ____
 72
   65
 73
    6
 40
31.75
 49
12.7
 74
    0
 49
-6.35
 74
    0
 49
0
 74
    0
 49
-6.35
 74
    0
 49
0
 74
    0
 49
-6.35
 74
    0
  0
LTYPE
  5
3F
330
5
100
AcDbSymbolTableRecord
100
AcDbLinetypeTableRecord
  2
DIVIDETINY
 70
    0
  3
Divide (.15x) __..__..__..__..__..__..__..__.._
 72
   65
 73
    6
 40
4.7625
 49
1.905
 74
    0
 49
-0.9525
 74
    0
 49
0
 74
    0
 49
-0.9525
 74
    0
 49
0
 74
    0
 49
-0.9525
 74
    0
  0
LTYPE
  5
40
330
5
100
AcDbSymbolTableRecord
100
AcDbLinetypeTableRecord
  2
DIVIDE2
 70
    0
  3
Divide (.5x) __..__..__..__..__..__..__..__.._
 72
   65
 73
    6
 40
15.875
 49
6.35
 74
    0
 49
-3.175
 74
    0
 49
0
 74
    0
 49
-3.175
 74
    0
 49
0
 74
    0
 49
-3.175
 74
    0
  0
LTYPE
  5
41
330
5
100
AcDbSymbolTableRecord
100
AcDbLinetypeTableRecord
  2
DIVIDEX2
 70
    0
  3
Divide (2x) ________  .  .  ________  .  .  _
 72
   65
 73
    6
 40
63.5
 49
25.4
 74
    0
 49
-12.7
 74
    0
 49
0
 74
    0
 49
-12.7
 74
    0
 49
0
 74
    0
 49
-12.7
 74
    0
  0
LTYPE
  5
42
330
5
100
AcDbSymbolTableRecord
100
AcDbLinetypeTableRecord
  2
BORDER
 70
    0
  3
Border __ __ . __ __ . __ __ . __ __ . __ __ .
 72
   65
 73
    6
 40
44.45
 49
12.7
 74
    0
 49
-6.35
 74
    0
 49
12.7
 74
    0
 49
-6.35
 74
    0
 49
0
 74
    0
 49
-6.35
 74
    0
  0
LTYPE
  5
43
330
5
100
AcDbSymbolTableRecord
100
AcDbLinetypeTableRecord
  2
BORDERTINY
 70
    0
  3
Border (.15x) __.__.__.__.__.__.__.__.__.__.__.
 72
   65
 73
    6
 40
6.6675
 49
1.905
 74
    0
 49
-0.9525
 74
    0
 49
1.905
 74
    0
 49
-0.9525
 74
    0
 49
0
 74
    0
 49
-0.9525
 74
    0
  0
LTYPE
  5
44
330
5
100
AcDbSymbolTableRecord
100
AcDbLinetypeTableRecord
  2
BORDER2
 70
    0
  3
Border (.5x) __.__.__.__.__.__.__.__.__.__.__.
 72
   65
 73
    6
 40
22.225
 49
6.35
 74
    0
 49
-3.175
 74
    0
 49
6.35
 74
    0
 49
-3.175
 74
    0
 49
0
 74
    0
 49
-3.175
 74
    0
  0
LTYPE
  5
45
330
5
100
AcDbSymbolTableRecord
100
AcDbLinetypeTableRecord
  2
BORDERX2
 70
    0
  3
Border (2x) ____  ____  .  ____  ____  .  ___
 72
   65
 73
    6
 40
88.89999999999999
 49
25.4
 74
    0
 49
-12.7
 74
    0
 49
25.4
 74
    0
 49
-12.7
 74
    0
 49
0
 74
    0
 49
-12.7
 74
    0
  0
LTYPE
  5
46
330
5
100
AcDbSymbolTableRecord
100
AcDbLinetypeTableRecord
  2
CENTER
 70
    0
  3
Center ____ _ ____ _ ____ _ ____ _ ____ _ ____
 72
   65
 73
    4
 40
50.8
 49
31.75
 74
    0
 49
-6.35
 74
    0
 49
6.35
 74
    0
 49
-6.35
 74
    0
  0
LTYPE
  5
47
330
5
100
AcDbSymbolTableRecord
100
AcDbLinetypeTableRecord
  2
CENTERTINY
 70
    0
  3
Center (.15x) ___ _ ___ _ ___ _ ___ _ ___ _ ___
 72
   65
 73
    4
 40
7.62
 49
4.7625
 74
    0
 49
-0.9525
 74
    0
 49
0.9525
 74
    0
 49
-0.9525
 74
    0
  0
LTYPE
  5
48
330
5
100
AcDbSymbolTableRecord
100
AcDbLinetypeTableRecord
  2
CENTER2
 70
    0
  3
Center (.5x) ___ _ ___ _ ___ _ ___ _ ___ _ ___
 72
   65
 73
    4
 40
28.575
 49
19.05
 74
    0
 49
-3.175
 74
    0
 49
3.175
 74
    0
 49
-3.175
 74
    0
  0
LTYPE
  5
49
330
5
100
AcDbSymbolTableRecord
100
AcDbLinetypeTableRecord
  2
CENTERX2
 70
    0
  3
Center (2x) ________  __  ________  __  _____
 72
   65
 73
    4
 40
101.6
 49
63.5
 74
    0
 49
-12.7
 74
    0
 49
12.7
 74
    0
 49
-12.7
 74
    0
  0
ENDTAB
  0
TABLE
  2
LAYER
  5
2
330
0
100
AcDbSymbolTable
 70
    1
  0
LAYER
  5
10
330
2
100
AcDbSymbolTableRecord
100
AcDbLayerTableRecord
  2
0
 70
    0
 62
    7
  6
CONTINUOUS
370
    0
390
F
  0
LAYER
  5
4A
330
2
100
AcDbSymbolTableRecord
100
AcDbLayerTableRecord
  2
1
 70
    0
 62
    7
  6
CONTINUOUS
370
    0
390
F
  0
LAYER
  5
4B
330
2
100
AcDbSymbolTableRecord
100
AcDbLayerTableRecord
  2
10
 70
    0
 62
    7
  6
CONTINUOUS
370
    0
390
F
  0
LAYER
  5
4C
330
2
100
AcDbSymbolTableRecord
100
AcDbLayerTableRecord
  2
11
 70
    0
 62
    7
  6
CONTINUOUS
370
    0
390
F
  0
LAYER
  5
4D
330
2
100
AcDbSymbolTableRecord
100
AcDbLayerTableRecord
  2
12
 70
    0
 62
    7
  6
CONTINUOUS
370
    0
390
F
  0
LAYER
  5
4E
330
2
100
AcDbSymbolTableRecord
100
AcDbLayerTableRecord
  2
13
 70
    0
 62
    7
  6
CONTINUOUS
370
    0
390
F
  0
LAYER
  5
4F
330
2
100
AcDbSymbolTableRecord
100
AcDbLayerTableRecord
  2
14
 70
    0
 62
    7
  6
CONTINUOUS
370
    0
390
F
  0
LAYER
  5
50
330
2
100
AcDbSymbolTableRecord
100
AcDbLayerTableRecord
  2
15
 70
    0
 62
    7
  6
CONTINUOUS
370
    0
390
F
  0
LAYER
  5
51
330
2
100
AcDbSymbolTableRecord
100
AcDbLayerTableRecord
  2
16
 70
    0
 62
    7
  6
CONTINUOUS
370
    0
390
F
  0
LAYER
  5
52
330
2
100
AcDbSymbolTableRecord
100
AcDbLayerTableRecord
  2
17
 70
    0
 62
    7
  6
CONTINUOUS
370
    0
390
F
  0
LAYER
  5
53
330
2
100
AcDbSymbolTableRecord
100
AcDbLayerTableRecord
  2
18
 70
    0
 62
    7
  6
CONTINUOUS
370
    0
390
F
  0
LAYER
  5
54
330
2
100
AcDbSymbolTableRecord
100
AcDbLayerTableRecord
  2
2
 70
    0
 62
    7
  6
CONTINUOUS
370
    0
390
F
  0
LAYER
  5
55
330
2
100
AcDbSymbolTableRecord
100
AcDbLayerTableRecord
  2
3
 70
    0
 62
    7
  6
CONTINUOUS
370
    0
390
F
  0
LAYER
  5
56
330
2
100
AcDbSymbolTableRecord
100
AcDbLayerTableRecord
  2
4
 70
    0
 62
    7
  6
CONTINUOUS
370
    0
390
F
  0
LAYER
  5
57
330
2
100
AcDbSymbolTableRecord
100
AcDbLayerTableRecord
  2
5
 70
    0
 62
    7
  6
CONTINUOUS
370
    0
390
F
  0
LAYER
  5
58
330
2
100
AcDbSymbolTableRecord
100
AcDbLayerTableRecord
  2
6
 70
    0
 62
    7
  6
CONTINUOUS
370
    0
390
F
  0
LAYER
  5
59
330
2
100
AcDbSymbolTableRecord
100
AcDbLayerTableRecord
  2
7
 70
    0
 62
    7
  6
CONTINUOUS
370
    0
390
F
  0
LAYER
  5
5A
330
2
100
AcDbSymbolTableRecord
100
AcDbLayerTableRecord
  2
8
 70
    0
 62
    7
  6
CONTINUOUS
370
    0
390
F
  0
LAYER
  5
5B
330
2
100
AcDbSymbolTableRecord
100
AcDbLayerTableRecord
  2
9
 70
    0
 62
    7
  6
CONTINUOUS
370
    0
390
F
  0
ENDTAB
  0
TABLE
  2
STYLE
  5
3
330
0
100
AcDbSymbolTable
 70
    3
  0
STYLE
  5
5C
330
2
100
AcDbSymbolTableRecord
100
AcDbTextStyleTableRecord
  2
Standard
 70
    0
 40
0
 41
1
 50
0
 71
    0
 42
1
  3
txt
  4

  0
ENDTAB
  0
TABLE
  2
VIEW
  5
6
330
0
100
AcDbSymbolTable
 70
    0
  0
ENDTAB
  0
TABLE
  2
UCS
  5
7
330
0
100
AcDbSymbolTable
 70
    0
  0
ENDTAB
  0
TABLE
  2
APPID
  5
9
330
0
100
AcDbSymbolTable
 70
    1
  0
APPID
  5
12
330
9
100
AcDbSymbolTableRecord
100
AcDbRegAppTableRecord
  2
ACAD
 70
    0
  0
APPID
  5
5D
330
9
100
AcDbSymbolTableRecord
100
AcDbRegAppTableRecord
  2
LibreCad
 70
    0
  0
ENDTAB
  0
TABLE
  2
DIMSTYLE
  5
A
330
0
100
AcDbSymbolTable
 70
    1
100
AcDbDimStyleTable
 71
    1
  0
DIMSTYLE
105
5E
330
A
100
AcDbSymbolTableRecord
100
AcDbDimStyleTableRecord
  2
Standard
 70
    0
 40
1
 41
2.5
 42
0.625
 43
0.38
 44
1.25
 45
0
 46
0
 47
0
 48
0
 49
1
140
2.5
141
0.09
142
2.5
143
25.4
144
1
145
0
146
1
147
0.625
148
0
 71
    0
 72
    0
 73
    0
 74
    1
 75
    0
 76
    0
 77
    0
 78
    1
 79
    0
170
    0
171
    2
172
    0
173
    0
174
    0
175
    0
176
    0
177
    0
178
    0
179
    0
271
    2
272
    4
273
    2
274
    2
275
    0
276
    0
277
    2
278
    0
279
    0
280
    0
281
    0
282
    0
283
    1
284
    0
285
    0
286
    0
288
    0
289
    3
340
standard
341

371
   -2
372
   -2
  0
ENDTAB
  0
TABLE
  2
BLOCK_RECORD
  5
1
330
0
100
AcDbSymbolTable
 70
    2
  0
BLOCK_RECORD
  5
1F
330
1
100
AcDbSymbolTableRecord
100
AcDbBlockTableRecord
  2
*Model_Space
 70
    0
280
    1
281
    0
  0
BLOCK_RECORD
  5
1E
330
1
100
AcDbSymbolTableRecord
100
AcDbBlockTableRecord
  2
*Paper_Space
 70
    0
280
    1
281
    0
  0
ENDTAB
  0
ENDSEC
  0
SECTION
  2
BLOCKS
  0
BLOCK
  5
20
330
1F
100
AcDbEntity
  8
0
100
AcDbBlockBegin
  2
*Model_Space
 70
    0
 10
0
 20
0
 30
0
  3
*Model_Space
  1

  0
ENDBLK
  5
21
330
1F
100
AcDbEntity
  8
0
100
AcDbBlockEnd
  0
BLOCK
  5
1C
330
1B
100
AcDbEntity
  8
0
100
AcDbBlockBegin
  2
*Paper_Space
 70
    0
 10
0
 20
0
 30
0
  3
*Paper_Space
  1

  0
ENDBLK
  5
1D
330
1F
100
AcDbEntity
  8
0
100
AcDbBlockEnd
  0
ENDSEC
  0
SECTION
  2
ENTITIES
  0
LINE
  5
5F
100
AcDbEntity
  8
1
  6
ByLayer
 62
  256
370
   -1
100
AcDbLine
 10
8.944076224058714
 20
17.88815244811743
 11
16.77014292011009
 21
9.68941590939694
  0
LINE
  5
60
100
AcDbEntity
  8
1
  6
ByLayer
 62
  256
370
   -1
100
AcDbLine
 10
16.77014292011009
 20
9.68941590939694
 11
22.91919532415045
 21
8.944076224058714
  0
LINE
  5
61
100
AcDbEntity
  8
1
  6
ByLayer
 62
  256
370
   -1
100
AcDbLine
 10
22.91919532415045
 20
8.944076224058714
 11
49.00608431098837
 21
8.757741302724158
  0
LINE
  5
62
100
AcDbEntity
  8
1
  6
ByLayer
 62
  256
370
   -1
100
AcDbLine
 10
49.00608431098837
 20
8.757741302724158
 11
53.85079226568684
 21
12.8571095720844
  0
LINE
  5
63
100
AcDbEntity
  8
1
  6
ByLayer
 62
  256
370
   -1
100
AcDbLine
 10
53.85079226568684
 20
12.8571095720844
 11
55.90047640036696
 21
17.70181752678287
  0
LINE
  5
64
100
AcDbEntity
  8
1
  6
ByLayer
 62
  256
370
   -1
100
AcDbLine
 10
55.90047640036696
 20
17.70181752678287
 11
49.56508907499204
 21
71.36627487113516
  0
LINE
  5
65
100
AcDbEntity
  8
1
  6
ByLayer
 62
  256
370
   -1
100
AcDbLine
 10
49.56508907499204
 20
71.36627487113516
 11
12.48443972941529
 21
71.55260979246971
  0
LINE
  5
66
100
AcDbEntity
  8
1
  6
ByLayer
 62
  256
370
   -1
100
AcDbLine
 10
12.48443972941529
 20
71.55260979246971
 11
8.944076224058714
 21
17.88815244811743
  0
LINE
  5
67
100
AcDbEntity
  8
2
  6
ByLayer
 62
  256
370
   -1
100
AcDbLine
 10
8.385071460055046
 20
81.24202570186665
 11
16.21113815610642
 21
73.04328916314616
  0
LINE
  5
68
100
AcDbEntity
  8
2
  6
ByLayer
 62
  256
370
   -1
100
AcDbLine
 10
16.21113815610642
 20
73.04328916314616
 11
22.36019056014679
 21
72.29794947780793
  0
LINE
  5
69
100
AcDbEntity
  8
2
  6
ByLayer
 62
  256
370
   -1
100
AcDbLine
 10
22.36019056014679
 20
72.29794947780793
 11
48.4470795469847
 21
72.11161455647338
  0
LINE
  5
6A
100
AcDbEntity
  8
2
  6
ByLayer
 62
  256
370
   -1
100
AcDbLine
 10
48.4470795469847
 20
72.11161455647338
 11
53.29178750168317
 21
76.21098282583363
  0
LINE
  5
6B
100
AcDbEntity
  8
2
  6
ByLayer
 62
  256
370
   -1
100
AcDbLine
 10
53.29178750168317
 20
76.21098282583363
 11
55.34147163636329
 21
81.05569078053209
  0
LINE
  5
6C
100
AcDbEntity
  8
2
  6
ByLayer
 62
  256
370
   -1
100
AcDbLine
 10
55.34147163636329
 20
81.05569078053209
 11
49.00608431098838
 21
134.7201481248844
  0
LINE
  5
6D
100
AcDbEntity
  8
2
  6
ByLayer
 62
  256
370
   -1
100
AcDbLine
 10
49.00608431098838
 20
134.7201481248844
 11
11.92543496541162
 21
134.9064830462189
  0
LINE
  5
6E
100
AcDbEntity
  8
2
  6
ByLayer
 62
  256
370
   -1
100
AcDbLine
 10
11.92543496541162
 20
134.9064830462189
 11
8.385071460055046
 21
81.24202570186665
  0
LINE
  5
6F
100
AcDbEntity
  8
3
  6
ByLayer
 62
  256
370
   -1
100
AcDbLine
 10
97.50978433766241
 20
126.0222293947324
 11
89.61105021373871
 21
134.1509808364951
  0
LINE
  5
70
100
AcDbEntity
  8
3
  6
ByLayer
 62
  256
370
   -1
100
AcDbLine
 10
89.61105021373871
 20
134.1509808364951
 11
83.45560709136248
 21
134.8415579005262
  0
LINE
  5
71
100
AcDbEntity
  8
3
  6
ByLayer
 62
  256
370
   -1
100
AcDbLine
 10
83.45560709136248
 20
134.8415579005262
 11
57.36809296411171
 21
134.7956844331847
  0
LINE
  5
72
100
AcDbEntity
  8
3
  6
ByLayer
 62
  256
370
   -1
100
AcDbLine
 10
57.36809296411171
 20
134.7956844331847
 11
52.56006566331938
 21
130.6533555171048
  0
LINE
  5
73
100
AcDbEntity
  8
3
  6
ByLayer
 62
  256
370
   -1
100
AcDbLine
 10
52.56006566331938
 20
130.6533555171048
 11
50.55358577150804
 21
125.7905951218114
  0
LINE
  5
74
100
AcDbEntity
  8
3
  6
ByLayer
 62
  256
370
   -1
100
AcDbLine
 10
50.55358577150804
 20
125.7905951218114
 11
57.36639276195135
 21
72.18465538061015
  0
LINE
  5
75
100
AcDbEntity
  8
3
  6
ByLayer
 62
  256
370
   -1
100
AcDbLine
 10
57.36639276195135
 20
72.18465538061015
 11
94.44723172755312
 21
72.32838498660516
  0
LINE
  5
76
100
AcDbEntity
  8
3
  6
ByLayer
 62
  256
370
   -1
100
AcDbLine
 10
94.44723172755312
 20
72.32838498660516
 11
97.50978433766241
 21
126.0222293947324
  0
LINE
  5
77
100
AcDbEntity
  8
4
  6
ByLayer
 62
  256
370
   -1
100
AcDbLine
 10
97.83748685971713
 20
62.62319478098186
 11
89.93875273579343
 21
70.75194622274449
  0
LINE
  5
78
100
AcDbEntity
  8
4
  6
ByLayer
 62
  256
370
   -1
100
AcDbLine
 10
89.93875273579343
 20
70.75194622274449
 11
83.7833096134172
 21
71.44252328677564
  0
LINE
  5
79
100
AcDbEntity
  8
4
  6
ByLayer
 62
  256
370
   -1
100
AcDbLine
 10
83.7833096134172
 20
71.44252328677564
 11
57.69579548616643
 21
71.39664981943417
  0
LINE
  5
7A
100
AcDbEntity
  8
4
  6
ByLayer
 62
  256
370
   -1
100
AcDbLine
 10
57.69579548616643
 20
71.39664981943417
 11
52.8877681853741
 21
67.25432090335428
  0
LINE
  5
7B
100
AcDbEntity
  8
4
  6
ByLayer
 62
  256
370
   -1
100
AcDbLine
 10
52.8877681853741
 20
67.25432090335428
 11
50.88128829356276
 21
62.39156050806082
  0
LINE
  5
7C
100
AcDbEntity
  8
4
  6
ByLayer
 62
  256
370
   -1
100
AcDbLine
 10
50.88128829356276
 20
62.39156050806082
 11
57.69409528400607
 21
8.785620766859594
  0
LINE
  5
7D
100
AcDbEntity
  8
4
  6
ByLayer
 62
  256
370
   -1
100
AcDbLine
 10
57.69409528400607
 20
8.785620766859594
 11
94.77493424960784
 21
8.9293503728546
  0
LINE
  5
7E
100
AcDbEntity
  8
4
  6
ByLayer
 62
  256
370
   -1
100
AcDbLine
 10
94.77493424960784
 20
8.9293503728546
 11
97.83748685971713
 21
62.62319478098186
  0
LINE
  5
7F
100
AcDbEntity
  8
5
  6
ByLayer
 62
  256
370
   -1
100
AcDbLine
 10
94.49081127859648
 20
68.43168619503737
 11
95.97385091749823
 21
77.96551244511997
  0
LINE
  5
80
100
AcDbEntity
  8
5
  6
ByLayer
 62
  256
370
   -1
100
AcDbLine
 10
95.97385091749823
 20
77.96551244511997
 11
98.30434177862954
 21
85.38071063962866
  0
LINE
  5
81
100
AcDbEntity
  8
5
  6
ByLayer
 62
  256
370
   -1
100
AcDbLine
 10
98.30434177862954
 20
85.38071063962866
 11
103.8127747231217
 21
92.16032041746519
  0
LINE
  5
82
100
AcDbEntity
  8
5
  6
ByLayer
 62
  256
370
   -1
100
AcDbLine
 10
103.8127747231217
 20
92.16032041746519
 11
115.0415034176634
 21
99.57551861197388
  0
LINE
  5
83
100
AcDbEntity
  8
5
  6
ByLayer
 62
  256
370
   -1
100
AcDbLine
 10
115.0415034176634
 20
99.57551861197388
 11
126.2702321122052
 21
101.0585582508756
  0
LINE
  5
84
100
AcDbEntity
  8
5
  6
ByLayer
 62
  256
370
   -1
100
AcDbLine
 10
126.2702321122052
 20
101.0585582508756
 11
134.2441529885935
 21
100.3153897058665
  0
LINE
  5
85
100
AcDbEntity
  8
5
  6
ByLayer
 62
  256
370
   -1
100
AcDbLine
 10
134.2441529885935
 20
100.3153897058665
 11
145.2268740512104
 21
95.21626921250864
  0
LINE
  5
86
100
AcDbEntity
  8
5
  6
ByLayer
 62
  256
370
   -1
100
AcDbLine
 10
145.2268740512104
 20
95.21626921250864
 11
155.1309350094631
 21
85.31220825425594
  0
LINE
  5
87
100
AcDbEntity
  8
5
  6
ByLayer
 62
  256
370
   -1
100
AcDbLine
 10
155.1309350094631
 20
85.31220825425594
 11
159.1513953984568
 21
74.23142718215144
  0
LINE
  5
88
100
AcDbEntity
  8
5
  6
ByLayer
 62
  256
370
   -1
100
AcDbLine
 10
159.1513953984568
 20
74.23142718215144
 11
158.9552753794815
 21
68.64200664135535
  0
LINE
  5
89
100
AcDbEntity
  8
5
  6
ByLayer
 62
  256
370
   -1
100
AcDbLine
 10
158.9552753794815
 20
68.64200664135535
 11
149.2473344402041
 21
66.28856641365174
  0
LINE
  5
8A
100
AcDbEntity
  8
5
  6
ByLayer
 62
  256
370
   -1
100
AcDbLine
 10
149.2473344402041
 20
66.28856641365174
 11
136.1072931688589
 21
65.40602632826288
  0
LINE
  5
8B
100
AcDbEntity
  8
5
  6
ByLayer
 62
  256
370
   -1
100
AcDbLine
 10
136.1072931688589
 20
65.40602632826288
 11
130.0275725806246
 21
64.62154625236168
  0
LINE
  5
8C
100
AcDbEntity
  8
5
  6
ByLayer
 62
  256
370
   -1
100
AcDbLine
 10
130.0275725806246
 20
64.62154625236168
 11
114.1418510436252
 21
64.32736622389874
  0
LINE
  5
8D
100
AcDbEntity
  8
5
  6
ByLayer
 62
  256
370
   -1
100
AcDbLine
 10
114.1418510436252
 20
64.32736622389874
 11
109.140790559755
 21
65.60214634723819
  0
LINE
  5
8E
100
AcDbEntity
  8
5
  6
ByLayer
 62
  256
370
   -1
100
AcDbLine
 10
109.140790559755
 20
65.60214634723819
 11
98.8444895635517
 21
66.87692647057764
  0
LINE
  5
8F
100
AcDbEntity
  8
5
  6
ByLayer
 62
  256
370
   -1
100
AcDbLine
 10
98.8444895635517
 20
66.87692647057764
 11
94.49081127859648
 21
68.43168619503737
  0
LINE
  5
90
100
AcDbEntity
  8
6
  6
ByLayer
 62
  256
370
   -1
100
AcDbLine
 10
138.5146039079389
 20
65.28177338551603
 11
144.6319161249474
 21
57.82042358960402
  0
LINE
  5
91
100
AcDbEntity
  8
6
  6
ByLayer
 62
  256
370
   -1
100
AcDbLine
 10
144.6319161249474
 20
57.82042358960402
 11
148.605138079393
 21
51.13986528820635
  0
LINE
  5
92
100
AcDbEntity
  8
6
  6
ByLayer
 62
  256
370
   -1
100
AcDbLine
 10
148.605138079393
 20
51.13986528820635
 11
149.9859690866519
 21
42.51436542019314
  0
LINE
  5
93
100
AcDbEntity
  8
6
  6
ByLayer
 62
  256
370
   -1
100
AcDbLine
 10
149.9859690866519
 20
42.51436542019314
 11
148.0269531806957
 21
29.20152316019171
  0
LINE
  5
94
100
AcDbEntity
  8
6
  6
ByLayer
 62
  256
370
   -1
100
AcDbLine
 10
148.0269531806957
 20
29.20152316019171
 11
141.6464146356704
 21
19.84350614045809
  0
LINE
  5
95
100
AcDbEntity
  8
6
  6
ByLayer
 62
  256
370
   -1
100
AcDbLine
 10
141.6464146356704
 20
19.84350614045809
 11
135.7764771136314
 21
14.39561231655209
  0
LINE
  5
96
100
AcDbEntity
  8
6
  6
ByLayer
 62
  256
370
   -1
100
AcDbLine
 10
135.7764771136314
 20
14.39561231655209
 11
124.6539458212711
 21
9.609122016186415
  0
LINE
  5
97
100
AcDbEntity
  8
6
  6
ByLayer
 62
  256
370
   -1
100
AcDbLine
 10
124.6539458212711
 20
9.609122016186415
 11
110.6691780125832
 21
8.829945356719382
  0
LINE
  5
98
100
AcDbEntity
  8
6
  6
ByLayer
 62
  256
370
   -1
100
AcDbLine
 10
110.6691780125832
 20
8.829945356719382
 11
99.7297970124864
 21
13.2205893006184
  0
LINE
  5
99
100
AcDbEntity
  8
6
  6
ByLayer
 62
  256
370
   -1
100
AcDbLine
 10
99.7297970124864
 20
13.2205893006184
 11
95.69448190166271
 21
17.09309714439017
  0
LINE
  5
9A
100
AcDbEntity
  8
6
  6
ByLayer
 62
  256
370
   -1
100
AcDbLine
 10
95.69448190166271
 20
17.09309714439017
 11
100.4123970330347
 21
25.89787283710619
  0
LINE
  5
9B
100
AcDbEntity
  8
6
  6
ByLayer
 62
  256
370
   -1
100
AcDbLine
 10
100.4123970330347
 20
25.89787283710619
 11
108.5147421507684
 21
36.28014451569901
  0
LINE
  5
9C
100
AcDbEntity
  8
6
  6
ByLayer
 62
  256
370
   -1
100
AcDbLine
 10
108.5147421507684
 20
36.28014451569901
 11
111.9832327225825
 21
41.33464593262657
  0
LINE
  5
9D
100
AcDbEntity
  8
6
  6
ByLayer
 62
  256
370
   -1
100
AcDbLine
 10
111.9832327225825
 20
41.33464593262657
 11
122.3545888254009
 21
53.37115968158082
  0
LINE
  5
9E
100
AcDbEntity
  8
6
  6
ByLayer
 62
  256
370
   -1
100
AcDbLine
 10
122.3545888254009
 20
53.37115968158082
 11
126.6388285615211
 21
56.24882543868988
  0
LINE
  5
9F
100
AcDbEntity
  8
6
  6
ByLayer
 62
  256
370
   -1
100
AcDbLine
 10
126.6388285615211
 20
56.24882543868988
 11
134.4532758325814
 21
63.07328823184035
  0
LINE
  5
A0
100
AcDbEntity
  8
6
  6
ByLayer
 62
  256
370
   -1
100
AcDbLine
 10
134.4532758325814
 20
63.07328823184035
 11
138.5146039079389
 21
65.28177338551603
  0
LINE
  5
A1
100
AcDbEntity
  8
7
  6
ByLayer
 62
  256
370
   -1
100
AcDbLine
 10
133.1913219417353
 20
100.8616222105035
 11
143.4593753953934
 21
103.1499312658902
  0
LINE
  5
A2
100
AcDbEntity
  8
7
  6
ByLayer
 62
  256
370
   -1
100
AcDbLine
 10
143.4593753953934
 20
103.1499312658902
 11
148.5053902354767
 21
92.58850485641338
  0
LINE
  5
A3
100
AcDbEntity
  8
7
  6
ByLayer
 62
  256
370
   -1
100
AcDbLine
 10
148.5053902354767
 20
92.58850485641338
 11
172.5930692589867
 21
85.73906347555604
  0
LINE
  5
A4
100
AcDbEntity
  8
7
  6
ByLayer
 62
  256
370
   -1
100
AcDbLine
 10
172.5930692589867
 20
85.73906347555604
 11
173.8195057976487
 21
114.7275634802954
  0
LINE
  5
A5
100
AcDbEntity
  8
7
  6
ByLayer
 62
  256
370
   -1
100
AcDbLine
 10
173.8195057976487
 20
114.7275634802954
 11
140.1482480998361
 21
135.4654904067628
  0
LINE
  5
A6
100
AcDbEntity
  8
7
  6
ByLayer
 62
  256
370
   -1
100
AcDbLine
 10
140.1482480998361
 20
135.4654904067628
 11
115.6195173265951
 21
122.643653866205
  0
LINE
  5
A7
100
AcDbEntity
  8
7
  6
ByLayer
 62
  256
370
   -1
100
AcDbLine
 10
115.6195173265951
 20
122.643653866205
 11
133.1913219417353
 21
100.8616222105035
  0
LINE
  5
A8
100
AcDbEntity
  8
8
  6
ByLayer
 62
  256
370
   -1
100
AcDbLine
 10
173.5179122296971
 20
80.10191280346812
 11
182.8108206952436
 21
75.17128076374775
  0
LINE
  5
A9
100
AcDbEntity
  8
8
  6
ByLayer
 62
  256
370
   -1
100
AcDbLine
 10
182.8108206952436
 20
75.17128076374775
 11
179.7861770651162
 21
63.8638706058086
  0
LINE
  5
AA
100
AcDbEntity
  8
8
  6
ByLayer
 62
  256
370
   -1
100
AcDbLine
 10
179.7861770651162
 20
63.8638706058086
 11
193.6495040176055
 21
43.0086723622573
  0
LINE
  5
AB
100
AcDbEntity
  8
8
  6
ByLayer
 62
  256
370
   -1
100
AcDbLine
 10
193.6495040176055
 20
43.0086723622573
 11
213.4134386043039
 21
64.25071013552299
  0
LINE
  5
AC
100
AcDbEntity
  8
8
  6
ByLayer
 62
  256
370
   -1
100
AcDbLine
 10
213.4134386043039
 20
64.25071013552299
 11
201.2863594216988
 21
101.8904385970679
  0
LINE
  5
AD
100
AcDbEntity
  8
8
  6
ByLayer
 62
  256
370
   -1
100
AcDbLine
 10
201.2863594216988
 20
101.8904385970679
 11
174.3088524638909
 21
108.0768950917302
  0
LINE
  5
AE
100
AcDbEntity
  8
8
  6
ByLayer
 62
  256
370
   -1
100
AcDbLine
 10
174.3088524638909
 20
108.0768950917302
 11
173.5179122296971
 21
80.10191280346812
  0
LINE
  5
AF
100
AcDbEntity
  8
9
  6
ByLayer
 62
  256
370
   -1
100
AcDbLine
 10
156.2520039403556
 20
48.27095467246774
 11
159.2193092561153
 21
38.17816619637222
  0
LINE
  5
B0
100
AcDbEntity
  8
9
  6
ByLayer
 62
  256
370
   -1
100
AcDbLine
 10
159.2193092561153
 20
38.17816619637222
 11
149.017524030573
 21
32.43973681360182
  0
LINE
  5
B1
100
AcDbEntity
  8
9
  6
ByLayer
 62
  256
370
   -1
100
AcDbLine
 10
149.017524030573
 20
32.43973681360182
 11
143.7880742783581
 21
7.949249205991769
  0
LINE
  5
B2
100
AcDbEntity
  8
9
  6
ByLayer
 62
  256
370
   -1
100
AcDbLine
 10
143.7880742783581
 20
7.949249205991769
 11
172.7938776597767
 21
8.656814967332856
  0
LINE
  5
B3
100
AcDbEntity
  8
9
  6
ByLayer
 62
  256
370
   -1
100
AcDbLine
 10
172.7938776597767
 20
8.656814967332856
 11
191.2424774968158
 21
43.63487054812251
  0
LINE
  5
B4
100
AcDbEntity
  8
9
  6
ByLayer
 62
  256
370
   -1
100
AcDbLine
 10
191.2424774968158
 20
43.63487054812251
 11
176.814969690551
 21
67.25488630000312
  0
LINE
  5
B5
100
AcDbEntity
  8
9
  6
ByLayer
 62
  256
370
   -1
100
AcDbLine
 10
176.814969690551
 20
67.25488630000312
 11
156.2520039403556
 21
48.27095467246774
  0
LINE
  5
B6
100
AcDbEntity
  8
10
  6
ByLayer
 62
  256
370
   -1
100
AcDbLine
 10
189.6463348463907
 20
106.9929857021081
 11
184.0685014685556
 21
119.4163418618316
  0
LINE
  5
B7
100
AcDbEntity
  8
10
  6
ByLayer
 62
  256
370
   -1
100
AcDbLine
 10
184.0685014685556
 20
119.4163418618316
 11
183.9417325281503
 21
133.8680010680405
  0
LINE
  5
B8
100
AcDbEntity
  8
10
  6
ByLayer
 62
  256
370
   -1
100
AcDbLine
 10
183.9417325281503
 20
133.8680010680405
 11
203.7176872313835
 21
142.234751134793
  0
LINE
  5
B9
100
AcDbEntity
  8
10
  6
ByLayer
 62
  256
370
   -1
100
AcDbLine
 10
203.7176872313835
 20
142.234751134793
 11
207.6475243839491
 21
127.2760161669627
  0
LINE
  5
BA
100
AcDbEntity
  8
10
  6
ByLayer
 62
  256
370
   -1
100
AcDbLine
 10
207.6475243839491
 20
127.2760161669627
 11
210.943516834488
 21
123.0926411335865
  0
LINE
  5
BB
100
AcDbEntity
  8
10
  6
ByLayer
 62
  256
370
   -1
100
AcDbLine
 10
210.943516834488
 20
123.0926411335865
 11
219.1834979608352
 21
123.0926411335865
  0
LINE
  5
BC
100
AcDbEntity
  8
10
  6
ByLayer
 62
  256
370
   -1
100
AcDbLine
 10
219.1834979608352
 20
123.0926411335865
 11
231.2265472993426
 21
117.5148077557514
  0
LINE
  5
BD
100
AcDbEntity
  8
10
  6
ByLayer
 62
  256
370
   -1
100
AcDbLine
 10
231.2265472993426
 20
117.5148077557514
 11
231.6068541205586
 21
89.62564086657633
  0
LINE
  5
BE
100
AcDbEntity
  8
10
  6
ByLayer
 62
  256
370
   -1
100
AcDbLine
 10
231.6068541205586
 20
89.62564086657633
 11
228.3108616700198
 21
82.39981126347188
  0
LINE
  5
BF
100
AcDbEntity
  8
10
  6
ByLayer
 62
  256
370
   -1
100
AcDbLine
 10
228.3108616700198
 20
82.39981126347188
 11
214.8733539870536
 21
82.27304232306653
  0
LINE
  5
C0
100
AcDbEntity
  8
10
  6
ByLayer
 62
  256
370
   -1
100
AcDbLine
 10
214.8733539870536
 20
82.27304232306653
 11
207.3939865031384
 21
85.18872795238939
  0
LINE
  5
C1
100
AcDbEntity
  8
10
  6
ByLayer
 62
  256
370
   -1
100
AcDbLine
 10
207.3939865031384
 20
85.18872795238939
 11
209.5490584900292
 21
91.6539439130618
  0
LINE
  5
C2
100
AcDbEntity
  8
10
  6
ByLayer
 62
  256
370
   -1
100
AcDbLine
 10
209.5490584900292
 20
91.6539439130618
 11
209.4222895496239
 21
100.274231860625
  0
LINE
  5
C3
100
AcDbEntity
  8
10
  6
ByLayer
 62
  256
370
   -1
100
AcDbLine
 10
209.4222895496239
 20
100.274231860625
 11
205.9995281586797
 21
104.2040690131906
  0
LINE
  5
C4
100
AcDbEntity
  8
10
  6
ByLayer
 62
  256
370
   -1
100
AcDbLine
 10
205.9995281586797
 20
104.2040690131906
 11
201.1823084232767
 21
106.8662167617028
  0
LINE
  5
C5
100
AcDbEntity
  8
10
  6
ByLayer
 62
  256
370
   -1
100
AcDbLine
 10
201.1823084232767
 20
106.8662167617028
 11
196.4918576282791
 21
108.5142129869722
  0
LINE
  5
C6
100
AcDbEntity
  8
10
  6
ByLayer
 62
  256
370
   -1
100
AcDbLine
 10
196.4918576282791
 20
108.5142129869722
 11
191.6746378928761
 21
107.3732925233241
  0
LINE
  5
C7
100
AcDbEntity
  8
10
  6
ByLayer
 62
  256
370
   -1
100
AcDbLine
 10
191.6746378928761
 20
107.3732925233241
 11
189.6463348463907
 21
106.9929857021081
  0
LINE
  5
C8
100
AcDbEntity
  8
11
  6
ByLayer
 62
  256
370
   -1
100
AcDbLine
 10
208.6902606989571
 20
49.92213800137357
 11
221.301878564387
 21
55.06014328344543
  0
LINE
  5
C9
100
AcDbEntity
  8
11
  6
ByLayer
 62
  256
370
   -1
100
AcDbLine
 10
221.301878564387
 20
55.06014328344543
 11
235.7490723213966
 21
54.67920139276381
  0
LINE
  5
CA
100
AcDbEntity
  8
11
  6
ByLayer
 62
  256
370
   -1
100
AcDbLine
 10
235.7490723213966
 20
54.67920139276381
 11
243.4160039866255
 21
34.62155821255573
  0
LINE
  5
CB
100
AcDbEntity
  8
11
  6
ByLayer
 62
  256
370
   -1
100
AcDbLine
 10
243.4160039866255
 20
34.62155821255573
 11
228.3284598668802
 21
31.21959049986168
  0
LINE
  5
CC
100
AcDbEntity
  8
11
  6
ByLayer
 62
  256
370
   -1
100
AcDbLine
 10
228.3284598668802
 20
31.21959049986168
 11
224.031890609887
 21
28.07257834167955
  0
LINE
  5
CD
100
AcDbEntity
  8
11
  6
ByLayer
 62
  256
370
   -1
100
AcDbLine
 10
224.031890609887
 20
28.07257834167955
 11
223.7424509696503
 21
19.83768224900071
  0
LINE
  5
CE
100
AcDbEntity
  8
11
  6
ByLayer
 62
  256
370
   -1
100
AcDbLine
 10
223.7424509696503
 20
19.83768224900071
 11
217.7450326019525
 21
7.997993254630291
  0
LINE
  5
CF
100
AcDbEntity
  8
11
  6
ByLayer
 62
  256
370
   -1
100
AcDbLine
 10
217.7450326019525
 20
7.997993254630291
 11
189.8597178433362
 21
8.59756298653863
  0
LINE
  5
D0
100
AcDbEntity
  8
11
  6
ByLayer
 62
  256
370
   -1
100
AcDbLine
 10
189.8597178433362
 20
8.59756298653863
 11
182.7541232796971
 21
12.14533772351006
  0
LINE
  5
D1
100
AcDbEntity
  8
11
  6
ByLayer
 62
  256
370
   -1
100
AcDbLine
 10
182.7541232796971
 20
12.14533772351006
 11
183.0994418300419
 21
25.57900580757461
  0
LINE
  5
D2
100
AcDbEntity
  8
11
  6
ByLayer
 62
  256
370
   -1
100
AcDbLine
 10
183.0994418300419
 20
25.57900580757461
 11
186.2760502747432
 21
32.95134054207626
  0
LINE
  5
D3
100
AcDbEntity
  8
11
  6
ByLayer
 62
  256
370
   -1
100
AcDbLine
 10
186.2760502747432
 20
32.95134054207626
 11
192.6615768415524
 21
30.57049969242069
  0
LINE
  5
D4
100
AcDbEntity
  8
11
  6
ByLayer
 62
  256
370
   -1
100
AcDbLine
 10
192.6615768415524
 20
30.57049969242069
 11
201.2809979791277
 21
30.39439200867578
  0
LINE
  5
D5
100
AcDbEntity
  8
11
  6
ByLayer
 62
  256
370
   -1
100
AcDbLine
 10
201.2809979791277
 20
30.39439200867578
 11
205.3286387354268
 21
33.67700071106027
  0
LINE
  5
D6
100
AcDbEntity
  8
11
  6
ByLayer
 62
  256
370
   -1
100
AcDbLine
 10
205.3286387354268
 20
33.67700071106027
 11
208.1583544935075
 21
38.39773638916528
  0
LINE
  5
D7
100
AcDbEntity
  8
11
  6
ByLayer
 62
  256
370
   -1
100
AcDbLine
 10
208.1583544935075
 20
38.39773638916528
 11
209.9700916611012
 21
43.02740469848897
  0
LINE
  5
D8
100
AcDbEntity
  8
11
  6
ByLayer
 62
  256
370
   -1
100
AcDbLine
 10
209.9700916611012
 20
43.02740469848897
 11
208.9990861456378
 21
47.88172790285708
  0
LINE
  5
D9
100
AcDbEntity
  8
11
  6
ByLayer
 62
  256
370
   -1
100
AcDbLine
 10
208.9990861456378
 20
47.88172790285708
 11
208.6902606989571
 21
49.92213800137357
  0
LINE
  5
DA
100
AcDbEntity
  8
12
  6
ByLayer
 62
  256
370
   -1
100
AcDbLine
 10
215.8165878455877
 20
60.44198719879518
 11
214.0153365714514
 21
64.51148081814011
  0
LINE
  5
DB
100
AcDbEntity
  8
12
  6
ByLayer
 62
  256
370
   -1
100
AcDbLine
 10
214.0153365714514
 20
64.51148081814011
 11
212.1473722871619
 21
69.71509561008936
  0
LINE
  5
DC
100
AcDbEntity
  8
12
  6
ByLayer
 62
  256
370
   -1
100
AcDbLine
 10
212.1473722871619
 20
69.71509561008936
 11
212.4809373379279
 21
75.11884943249821
  0
LINE
  5
DD
100
AcDbEntity
  8
12
  6
ByLayer
 62
  256
370
   -1
100
AcDbLine
 10
212.4809373379279
 20
75.11884943249821
 11
225.489974317801
 21
75.38570147311098
  0
LINE
  5
DE
100
AcDbEntity
  8
12
  6
ByLayer
 62
  256
370
   -1
100
AcDbLine
 10
225.489974317801
 20
75.38570147311098
 11
245.1703123129937
 21
73.05074611774914
  0
LINE
  5
DF
100
AcDbEntity
  8
12
  6
ByLayer
 62
  256
370
   -1
100
AcDbLine
 10
245.1703123129937
 20
73.05074611774914
 11
247.3073439278567
 21
71.38768690701021
  0
LINE
  5
E0
100
AcDbEntity
  8
12
  6
ByLayer
 62
  256
370
   -1
100
AcDbLine
 10
247.3073439278567
 20
71.38768690701021
 11
250.6413842504369
 21
56.28644544591189
  0
LINE
  5
E1
100
AcDbEntity
  8
12
  6
ByLayer
 62
  256
370
   -1
100
AcDbLine
 10
250.6413842504369
 20
56.28644544591189
 11
254.8579646584059
 21
44.71536432636903
  0
LINE
  5
E2
100
AcDbEntity
  8
12
  6
ByLayer
 62
  256
370
   -1
100
AcDbLine
 10
254.8579646584059
 20
44.71536432636903
 11
262.7604479941123
 21
29.98034733010168
  0
LINE
  5
E3
100
AcDbEntity
  8
12
  6
ByLayer
 62
  256
370
   -1
100
AcDbLine
 10
262.7604479941123
 20
29.98034733010168
 11
255.4094974468277
 21
22.48526049757626
  0
LINE
  5
E4
100
AcDbEntity
  8
12
  6
ByLayer
 62
  256
370
   -1
100
AcDbLine
 10
255.4094974468277
 20
22.48526049757626
 11
237.5365980769594
 21
10.52194882258376
  0
LINE
  5
E5
100
AcDbEntity
  8
12
  6
ByLayer
 62
  256
370
   -1
100
AcDbLine
 10
237.5365980769594
 20
10.52194882258376
 11
231.9152829525654
 21
8.936449684934153
  0
LINE
  5
E6
100
AcDbEntity
  8
12
  6
ByLayer
 62
  256
370
   -1
100
AcDbLine
 10
231.9152829525654
 20
8.936449684934153
 11
227.5911943953392
 21
17.44049051414569
  0
LINE
  5
E7
100
AcDbEntity
  8
12
  6
ByLayer
 62
  256
370
   -1
100
AcDbLine
 10
227.5911943953392
 20
17.44049051414569
 11
226.5822403986531
 21
23.20594192378062
  0
LINE
  5
E8
100
AcDbEntity
  8
12
  6
ByLayer
 62
  256
370
   -1
100
AcDbLine
 10
226.5822403986531
 20
23.20594192378062
 11
238.5455520736456
 21
28.97139333341556
  0
LINE
  5
E9
100
AcDbEntity
  8
12
  6
ByLayer
 62
  256
370
   -1
100
AcDbLine
 10
238.5455520736456
 20
28.97139333341556
 11
244.7434123390031
 21
33.58375446112351
  0
LINE
  5
EA
100
AcDbEntity
  8
12
  6
ByLayer
 62
  256
370
   -1
100
AcDbLine
 10
244.7434123390031
 20
33.58375446112351
 11
236.3835077950324
 21
57.79865038159025
  0
LINE
  5
EB
100
AcDbEntity
  8
12
  6
ByLayer
 62
  256
370
   -1
100
AcDbLine
 10
236.3835077950324
 20
57.79865038159025
 11
225.7174226872078
 21
58.37519552255375
  0
LINE
  5
EC
100
AcDbEntity
  8
12
  6
ByLayer
 62
  256
370
   -1
100
AcDbLine
 10
225.7174226872078
 20
58.37519552255375
 11
215.8165878455877
 21
60.44198719879518
  0
LINE
  5
ED
100
AcDbEntity
  8
13
  6
ByLayer
 62
  256
370
   -1
100
AcDbLine
 10
258.988945248113
 20
42.34082609538412
 11
286.3710363756668
 21
54.63741331470226
  0
LINE
  5
EE
100
AcDbEntity
  8
13
  6
ByLayer
 62
  256
370
   -1
100
AcDbLine
 10
286.3710363756668
 20
54.63741331470226
 11
276.4830590240501
 21
67.31430735523642
  0
LINE
  5
EF
100
AcDbEntity
  8
13
  6
ByLayer
 62
  256
370
   -1
100
AcDbLine
 10
276.4830590240501
 20
67.31430735523642
 11
264.8203165067587
 21
82.90688702509344
  0
LINE
  5
F0
100
AcDbEntity
  8
13
  6
ByLayer
 62
  256
370
   -1
100
AcDbLine
 10
264.8203165067587
 20
82.90688702509344
 11
257.7212558440596
 21
89.7524098069819
  0
LINE
  5
F1
100
AcDbEntity
  8
13
  6
ByLayer
 62
  256
370
   -1
100
AcDbLine
 10
257.7212558440596
 20
89.7524098069819
 11
252.2158697747458
 21
100.788018136107
  0
LINE
  5
F2
100
AcDbEntity
  8
13
  6
ByLayer
 62
  256
370
   -1
100
AcDbLine
 10
252.2158697747458
 20
100.788018136107
 11
250.7409231678759
 21
106.8516875199053
  0
LINE
  5
F3
100
AcDbEntity
  8
13
  6
ByLayer
 62
  256
370
   -1
100
AcDbLine
 10
250.7409231678759
 20
106.8516875199053
 11
249.9215083862816
 21
111.6042932531526
  0
LINE
  5
F4
100
AcDbEntity
  8
13
  6
ByLayer
 62
  256
370
   -1
100
AcDbLine
 10
249.9215083862816
 20
111.6042932531526
 11
232.2221491038433
 21
103.5740283935278
  0
LINE
  5
F5
100
AcDbEntity
  8
13
  6
ByLayer
 62
  256
370
   -1
100
AcDbLine
 10
232.2221491038433
 20
103.5740283935278
 11
236.9747548370906
 21
95.8715294465408
  0
LINE
  5
F6
100
AcDbEntity
  8
13
  6
ByLayer
 62
  256
370
   -1
100
AcDbLine
 10
236.9747548370906
 20
95.8715294465408
 11
243.8578390024833
 21
85.05525432949517
  0
LINE
  5
F7
100
AcDbEntity
  8
13
  6
ByLayer
 62
  256
370
   -1
100
AcDbLine
 10
243.8578390024833
 20
85.05525432949517
 11
247.4632640414985
 21
72.27238373662307
  0
LINE
  5
F8
100
AcDbEntity
  8
13
  6
ByLayer
 62
  256
370
   -1
100
AcDbLine
 10
247.4632640414985
 20
72.27238373662307
 11
252.8714016000213
 21
58.83398131847547
  0
LINE
  5
F9
100
AcDbEntity
  8
13
  6
ByLayer
 62
  256
370
   -1
100
AcDbLine
 10
252.8714016000213
 20
58.83398131847547
 11
258.988945248113
 21
42.34082609538412
  0
LINE
  5
FA
100
AcDbEntity
  8
14
  6
ByLayer
 62
  256
370
   -1
100
AcDbLine
 10
273.7786767258705
 20
72.00710795673965
 11
298.5542589117775
 21
88.9527710924603
  0
LINE
  5
FB
100
AcDbEntity
  8
14
  6
ByLayer
 62
  256
370
   -1
100
AcDbLine
 10
298.5542589117775
 20
88.9527710924603
 11
286.5800669474273
 21
99.68097995610134
  0
LINE
  5
FC
100
AcDbEntity
  8
14
  6
ByLayer
 62
  256
370
   -1
100
AcDbLine
 10
286.5800669474273
 20
99.68097995610134
 11
272.3434063900157
 21
112.9650154859588
  0
LINE
  5
FD
100
AcDbEntity
  8
14
  6
ByLayer
 62
  256
370
   -1
100
AcDbLine
 10
272.3434063900157
 20
112.9650154859588
 11
264.1455289335057
 21
118.4470451883666
  0
LINE
  5
FE
100
AcDbEntity
  8
14
  6
ByLayer
 62
  256
370
   -1
100
AcDbLine
 10
264.1455289335057
 20
118.4470451883666
 11
256.7751231082069
 21
128.3349693859143
  0
LINE
  5
FF
100
AcDbEntity
  8
14
  6
ByLayer
 62
  256
370
   -1
100
AcDbLine
 10
256.7751231082069
 20
128.3349693859143
 11
254.2509787575383
 21
134.0421796664382
  0
LINE
  5
100
100
AcDbEntity
  8
14
  6
ByLayer
 62
  256
370
   -1
100
AcDbLine
 10
254.2509787575383
 20
134.0421796664382
 11
252.6039129625537
 21
138.5749355728359
  0
LINE
  5
101
100
AcDbEntity
  8
14
  6
ByLayer
 62
  256
370
   -1
100
AcDbLine
 10
252.6039129625537
 20
138.5749355728359
 11
236.6038532275383
 21
127.5408718970863
  0
LINE
  5
102
100
AcDbEntity
  8
14
  6
ByLayer
 62
  256
370
   -1
100
AcDbLine
 10
236.6038532275383
 20
127.5408718970863
 11
242.6438362507643
 21
120.8003707018357
  0
LINE
  5
103
100
AcDbEntity
  8
14
  6
ByLayer
 62
  256
370
   -1
100
AcDbLine
 10
242.6438362507643
 20
120.8003707018357
 11
251.3314286219286
 21
111.3719883470525
  0
LINE
  5
104
100
AcDbEntity
  8
14
  6
ByLayer
 62
  256
370
   -1
100
AcDbLine
 10
251.3314286219286
 20
111.3719883470525
 11
257.1408553315014
 21
99.4283108726657
  0
LINE
  5
105
100
AcDbEntity
  8
14
  6
ByLayer
 62
  256
370
   -1
100
AcDbLine
 10
257.1408553315014
 20
99.4283108726657
 11
264.8405156056876
 21
87.15827244297451
  0
LINE
  5
106
100
AcDbEntity
  8
14
  6
ByLayer
 62
  256
370
   -1
100
AcDbLine
 10
264.8405156056876
 20
87.15827244297451
 11
273.7786767258705
 21
72.00710795673965
  0
LINE
  5
107
100
AcDbEntity
  8
15
  6
ByLayer
 62
  256
370
   -1
100
AcDbLine
 10
294.4742084914185
 20
126.3993522295832
 11
288.7867279411347
 21
114.3379710626021
  0
LINE
  5
108
100
AcDbEntity
  8
15
  6
ByLayer
 62
  256
370
   -1
100
AcDbLine
 10
288.7867279411347
 20
114.3379710626021
 11
285.1585075900916
 21
101.9824098671579
  0
LINE
  5
109
100
AcDbEntity
  8
15
  6
ByLayer
 62
  256
370
   -1
100
AcDbLine
 10
285.1585075900916
 20
101.9824098671579
 11
299.1810889468258
 21
89.03848861478788
  0
LINE
  5
10A
100
AcDbEntity
  8
15
  6
ByLayer
 62
  256
370
   -1
100
AcDbLine
 10
299.1810889468258
 20
89.03848861478788
 11
298.3966088709246
 21
77.07516745729436
  0
LINE
  5
10B
100
AcDbEntity
  8
15
  6
ByLayer
 62
  256
370
   -1
100
AcDbLine
 10
298.3966088709246
 20
77.07516745729436
 11
295.6509286052703
 21
69.4264867172575
  0
LINE
  5
10C
100
AcDbEntity
  8
15
  6
ByLayer
 62
  256
370
   -1
100
AcDbLine
 10
295.6509286052703
 20
69.4264867172575
 11
292.0227082542272
 21
64.03318619543666
  0
LINE
  5
10D
100
AcDbEntity
  8
15
  6
ByLayer
 62
  256
370
   -1
100
AcDbLine
 10
292.0227082542272
 20
64.03318619543666
 11
304.2849265393359
 21
57.76382561371349
  0
LINE
  5
10E
100
AcDbEntity
  8
15
  6
ByLayer
 62
  256
370
   -1
100
AcDbLine
 10
304.2849265393359
 20
57.76382561371349
 11
313.4153376847293
 21
56.64581608570613
  0
LINE
  5
10F
100
AcDbEntity
  8
15
  6
ByLayer
 62
  256
370
   -1
100
AcDbLine
 10
313.4153376847293
 20
56.64581608570613
 11
321.2414043807808
 21
84.0370495218864
  0
LINE
  5
110
100
AcDbEntity
  8
15
  6
ByLayer
 62
  256
370
   -1
100
AcDbLine
 10
321.2414043807808
 20
84.0370495218864
 11
323.291088515461
 21
91.8631162179379
  0
LINE
  5
111
100
AcDbEntity
  8
15
  6
ByLayer
 62
  256
370
   -1
100
AcDbLine
 10
323.291088515461
 20
91.8631162179379
 11
316.955701190086
 21
96.14881940863278
  0
LINE
  5
112
100
AcDbEntity
  8
15
  6
ByLayer
 62
  256
370
   -1
100
AcDbLine
 10
316.955701190086
 20
96.14881940863278
 11
309.8749741793727
 21
99.31651307132029
  0
LINE
  5
113
100
AcDbEntity
  8
15
  6
ByLayer
 62
  256
370
   -1
100
AcDbLine
 10
309.8749741793727
 20
99.31651307132029
 11
304.2849265393359
 21
99.50284799265485
  0
LINE
  5
114
100
AcDbEntity
  8
15
  6
ByLayer
 62
  256
370
   -1
100
AcDbLine
 10
304.2849265393359
 20
99.50284799265485
 11
303.1669170113285
 21
110.4966083513939
  0
LINE
  5
115
100
AcDbEntity
  8
15
  6
ByLayer
 62
  256
370
   -1
100
AcDbLine
 10
303.1669170113285
 20
110.4966083513939
 11
304.0985916180013
 21
117.7636702834417
  0
LINE
  5
116
100
AcDbEntity
  8
15
  6
ByLayer
 62
  256
370
   -1
100
AcDbLine
 10
304.0985916180013
 20
117.7636702834417
 11
305.9619408313469
 21
120.5586941034601
  0
LINE
  5
117
100
AcDbEntity
  8
15
  6
ByLayer
 62
  256
370
   -1
100
AcDbLine
 10
305.9619408313469
 20
120.5586941034601
 11
302.6079122473249
 21
125.4034020581586
  0
LINE
  5
118
100
AcDbEntity
  8
15
  6
ByLayer
 62
  256
370
   -1
100
AcDbLine
 10
302.6079122473249
 20
125.4034020581586
 11
297.0178646072881
 21
127.6394211141733
  0
LINE
  5
119
100
AcDbEntity
  8
15
  6
ByLayer
 62
  256
370
   -1
100
AcDbLine
 10
297.0178646072881
 20
127.6394211141733
 11
294.4742084914185
 21
126.3993522295832
  0
LINE
  5
11A
100
AcDbEntity
  8
16
  6
ByLayer
 62
  256
370
   -1
100
AcDbLine
 10
323.3161418960534
 20
46.08458809948645
 11
310.1049138933697
 21
47.89781873185817
  0
LINE
  5
11B
100
AcDbEntity
  8
16
  6
ByLayer
 62
  256
370
   -1
100
AcDbLine
 10
310.1049138933697
 20
47.89781873185817
 11
297.2298809764389
 21
47.65823000499763
  0
LINE
  5
11C
100
AcDbEntity
  8
16
  6
ByLayer
 62
  256
370
   -1
100
AcDbLine
 10
297.2298809764389
 20
47.65823000499763
 11
289.0809283937569
 21
30.40214536510936
  0
LINE
  5
11D
100
AcDbEntity
  8
16
  6
ByLayer
 62
  256
370
   -1
100
AcDbLine
 10
289.0809283937569
 20
30.40214536510936
 11
277.4319856471001
 21
27.56690375425346
  0
LINE
  5
11E
100
AcDbEntity
  8
16
  6
ByLayer
 62
  256
370
   -1
100
AcDbLine
 10
277.4319856471001
 20
27.56690375425346
 11
269.3120567649789
 21
27.8952817887015
  0
LINE
  5
11F
100
AcDbEntity
  8
16
  6
ByLayer
 62
  256
370
   -1
100
AcDbLine
 10
269.3120567649789
 20
27.8952817887015
 11
263.0795663177148
 21
29.74128727600573
  0
LINE
  5
120
100
AcDbEntity
  8
16
  6
ByLayer
 62
  256
370
   -1
100
AcDbLine
 10
263.0795663177148
 20
29.74128727600573
 11
260.7713386935488
 21
16.16413865744984
  0
LINE
  5
121
100
AcDbEntity
  8
16
  6
ByLayer
 62
  256
370
   -1
100
AcDbLine
 10
260.7713386935488
 20
16.16413865744984
 11
262.4397489170419
 21
7.118103044277415
  0
LINE
  5
122
100
AcDbEntity
  8
16
  6
ByLayer
 62
  256
370
   -1
100
AcDbLine
 10
262.4397489170419
 20
7.118103044277415
 11
290.917486265843
 21
7.85665878291125
  0
LINE
  5
123
100
AcDbEntity
  8
16
  6
ByLayer
 62
  256
370
   -1
100
AcDbLine
 10
290.917486265843
 20
7.85665878291125
 11
298.9981647133279
 21
8.24545283039544
  0
LINE
  5
124
100
AcDbEntity
  8
16
  6
ByLayer
 62
  256
370
   -1
100
AcDbLine
 10
298.9981647133279
 20
8.24545283039544
 11
301.1892516348611
 21
15.57372155524036
  0
LINE
  5
125
100
AcDbEntity
  8
16
  6
ByLayer
 62
  256
370
   -1
100
AcDbLine
 10
301.1892516348611
 20
15.57372155524036
 11
302.0903980718856
 21
23.27819514140533
  0
LINE
  5
126
100
AcDbEntity
  8
16
  6
ByLayer
 62
  256
370
   -1
100
AcDbLine
 10
302.0903980718856
 20
23.27819514140533
 11
300.5936380574411
 21
28.66735674409917
  0
LINE
  5
127
100
AcDbEntity
  8
16
  6
ByLayer
 62
  256
370
   -1
100
AcDbLine
 10
300.5936380574411
 20
28.66735674409917
 11
310.7476396375738
 21
33.02728381238337
  0
LINE
  5
128
100
AcDbEntity
  8
16
  6
ByLayer
 62
  256
370
   -1
100
AcDbLine
 10
310.7476396375738
 20
33.02728381238337
 11
317.9600760912571
 21
34.31529277916846
  0
LINE
  5
129
100
AcDbEntity
  8
16
  6
ByLayer
 62
  256
370
   -1
100
AcDbLine
 10
317.9600760912571
 20
34.31529277916846
 11
321.1849273025288
 21
33.37478062586854
  0
LINE
  5
12A
100
AcDbEntity
  8
16
  6
ByLayer
 62
  256
370
   -1
100
AcDbLine
 10
321.1849273025288
 20
33.37478062586854
 11
324.802435596732
 21
38.02605320981022
  0
LINE
  5
12B
100
AcDbEntity
  8
16
  6
ByLayer
 62
  256
370
   -1
100
AcDbLine
 10
324.802435596732
 20
38.02605320981022
 11
325.26123492605
 21
44.02921212925916
  0
LINE
  5
12C
100
AcDbEntity
  8
16
  6
ByLayer
 62
  256
370
   -1
100
AcDbLine
 10
325.26123492605
 20
44.02921212925916
 11
323.3161418960534
 21
46.08458809948645
  0
LINE
  5
12D
100
AcDbEntity
  8
17
  6
ByLayer
 62
  256
370
   -1
100
AcDbLine
 10
324.1766788928156
 20
121.7306283433819
 11
320.4828647378868
 21
108.9173505561055
  0
LINE
  5
12E
100
AcDbEntity
  8
17
  6
ByLayer
 62
  256
370
   -1
100
AcDbLine
 10
320.4828647378868
 20
108.9173505561055
 11
318.8688783597953
 21
96.14163439843259
  0
LINE
  5
12F
100
AcDbEntity
  8
17
  6
ByLayer
 62
  256
370
   -1
100
AcDbLine
 10
318.8688783597953
 20
96.14163439843259
 11
334.7740817189771
 21
85.59637994930426
  0
LINE
  5
130
100
AcDbEntity
  8
17
  6
ByLayer
 62
  256
370
   -1
100
AcDbLine
 10
334.7740817189771
 20
85.59637994930426
 11
335.905060105574
 21
73.66083010877037
  0
LINE
  5
131
100
AcDbEntity
  8
17
  6
ByLayer
 62
  256
370
   -1
100
AcDbLine
 10
335.905060105574
 20
73.66083010877037
 11
334.4126647570781
 21
65.67247400078408
  0
LINE
  5
132
100
AcDbEntity
  8
17
  6
ByLayer
 62
  256
370
   -1
100
AcDbLine
 10
334.4126647570781
 20
65.67247400078408
 11
331.6897723651971
 21
59.77014137235376
  0
LINE
  5
133
100
AcDbEntity
  8
17
  6
ByLayer
 62
  256
370
   -1
100
AcDbLine
 10
331.6897723651971
 20
59.77014137235376
 11
344.7940017414653
 21
55.53386330906886
  0
LINE
  5
134
100
AcDbEntity
  8
17
  6
ByLayer
 62
  256
370
   -1
100
AcDbLine
 10
344.7940017414653
 20
55.53386330906886
 11
353.9859277653635
 21
55.88436146858204
  0
LINE
  5
135
100
AcDbEntity
  8
17
  6
ByLayer
 62
  256
370
   -1
100
AcDbLine
 10
353.9859277653635
 20
55.88436146858204
 11
357.3493833357097
 21
84.17241823663653
  0
LINE
  5
136
100
AcDbEntity
  8
17
  6
ByLayer
 62
  256
370
   -1
100
AcDbLine
 10
357.3493833357097
 20
84.17241823663653
 11
358.126414389486
 21
92.22504189135138
  0
LINE
  5
137
100
AcDbEntity
  8
17
  6
ByLayer
 62
  256
370
   -1
100
AcDbLine
 10
358.126414389486
 20
92.22504189135138
 11
351.1893014028865
 21
95.44697420169047
  0
LINE
  5
138
100
AcDbEntity
  8
17
  6
ByLayer
 62
  256
370
   -1
100
AcDbLine
 10
351.1893014028865
 20
95.44697420169047
 11
343.6944330822293
 21
97.44645588374814
  0
LINE
  5
139
100
AcDbEntity
  8
17
  6
ByLayer
 62
  256
370
   -1
100
AcDbLine
 10
343.6944330822293
 20
97.44645588374814
 11
338.1460672421072
 21
96.74006376533531
  0
LINE
  5
13A
100
AcDbEntity
  8
17
  6
ByLayer
 62
  256
370
   -1
100
AcDbLine
 10
338.1460672421072
 20
96.74006376533531
 11
335.2913112680013
 21
107.4154129614227
  0
LINE
  5
13B
100
AcDbEntity
  8
17
  6
ByLayer
 62
  256
370
   -1
100
AcDbLine
 10
335.2913112680013
 20
107.4154129614227
 11
335.0536396466011
 21
114.7380981859369
  0
LINE
  5
13C
100
AcDbEntity
  8
17
  6
ByLayer
 62
  256
370
   -1
100
AcDbLine
 10
335.0536396466011
 20
114.7380981859369
 11
336.4480279817453
 21
117.7942247566403
  0
LINE
  5
13D
100
AcDbEntity
  8
17
  6
ByLayer
 62
  256
370
   -1
100
AcDbLine
 10
336.4480279817453
 20
117.7942247566403
 11
332.3651801906913
 21
122.04287828733
  0
LINE
  5
13E
100
AcDbEntity
  8
17
  6
ByLayer
 62
  256
370
   -1
100
AcDbLine
 10
332.3651801906913
 20
122.04287828733
 11
326.4903532814042
 21
123.3600049413231
  0
LINE
  5
13F
100
AcDbEntity
  8
17
  6
ByLayer
 62
  256
370
   -1
100
AcDbLine
 10
326.4903532814042
 20
123.3600049413231
 11
324.1766788928156
 21
121.7306283433819
  0
LINE
  5
140
100
AcDbEntity
  8
18
  6
ByLayer
 62
  256
370
   -1
100
AcDbLine
 10
322.1598826936346
 20
79.96940797314787
 11
316.6658956361218
 21
67.81866902948909
  0
LINE
  5
141
100
AcDbEntity
  8
18
  6
ByLayer
 62
  256
370
   -1
100
AcDbLine
 10
316.6658956361218
 20
67.81866902948909
 11
313.2356073986758
 21
55.40669908196956
  0
LINE
  5
142
100
AcDbEntity
  8
18
  6
ByLayer
 62
  256
370
   -1
100
AcDbLine
 10
313.2356073986758
 20
55.40669908196956
 11
327.4632697261456
 21
42.68854237632689
  0
LINE
  5
143
100
AcDbEntity
  8
18
  6
ByLayer
 62
  256
370
   -1
100
AcDbLine
 10
327.4632697261456
 20
42.68854237632689
 11
326.8700897047886
 21
30.71421151531084
  0
LINE
  5
144
100
AcDbEntity
  8
18
  6
ByLayer
 62
  256
370
   -1
100
AcDbLine
 10
326.8700897047886
 20
30.71421151531084
 11
324.247002658229
 21
23.02262575355893
  0
LINE
  5
145
100
AcDbEntity
  8
18
  6
ByLayer
 62
  256
370
   -1
100
AcDbLine
 10
324.247002658229
 20
23.02262575355893
 11
320.7054423720765
 21
17.57202723835489
  0
LINE
  5
146
100
AcDbEntity
  8
18
  6
ByLayer
 62
  256
370
   -1
100
AcDbLine
 10
320.7054423720765
 20
17.57202723835489
 11
333.0662924891682
 21
11.49944428230466
  0
LINE
  5
147
100
AcDbEntity
  8
18
  6
ByLayer
 62
  256
370
   -1
100
AcDbLine
 10
333.0662924891682
 20
11.49944428230466
 11
342.213405691172
 21
10.52750135272088
  0
LINE
  5
148
100
AcDbEntity
  8
18
  6
ByLayer
 62
  256
370
   -1
100
AcDbLine
 10
342.213405691172
 20
10.52750135272088
 11
349.6007014095157
 21
38.04031384174328
  0
LINE
  5
149
100
AcDbEntity
  8
18
  6
ByLayer
 62
  256
370
   -1
100
AcDbLine
 10
349.6007014095157
 20
38.04031384174328
 11
351.5250462069761
 21
45.89813937324326
  0
LINE
  5
14A
100
AcDbEntity
  8
18
  6
ByLayer
 62
  256
370
   -1
100
AcDbLine
 10
351.5250462069761
 20
45.89813937324326
 11
345.1219732105014
 21
50.08204192983688
  0
LINE
  5
14B
100
AcDbEntity
  8
18
  6
ByLayer
 62
  256
370
   -1
100
AcDbLine
 10
345.1219732105014
 20
50.08204192983688
 11
337.991523946514
 21
53.13616560686389
  0
LINE
  5
14C
100
AcDbEntity
  8
18
  6
ByLayer
 62
  256
370
   -1
100
AcDbLine
 10
337.991523946514
 20
53.13616560686389
 11
332.3992122477314
 21
53.23313562516639
  0
LINE
  5
14D
100
AcDbEntity
  8
18
  6
ByLayer
 62
  256
370
   -1
100
AcDbLine
 10
332.3992122477314
 20
53.23313562516639
 11
331.1056413445978
 21
64.20762360632807
  0
LINE
  5
14E
100
AcDbEntity
  8
18
  6
ByLayer
 62
  256
370
   -1
100
AcDbLine
 10
331.1056413445978
 20
64.20762360632807
 11
331.9210535200365
 21
71.48864755087627
  0
LINE
  5
14F
100
AcDbEntity
  8
18
  6
ByLayer
 62
  256
370
   -1
100
AcDbLine
 10
331.9210535200365
 20
71.48864755087627
 11
333.7394941888181
 21
74.31309474979275
  0
LINE
  5
150
100
AcDbEntity
  8
18
  6
ByLayer
 62
  256
370
   -1
100
AcDbLine
 10
333.7394941888181
 20
74.31309474979275
 11
330.3084650350285
 21
79.10357926125945
  0
LINE
  5
151
100
AcDbEntity
  8
18
  6
ByLayer
 62
  256
370
   -1
100
AcDbLine
 10
330.3084650350285
 20
79.10357926125945
 11
324.6833949315325
 21
81.24997162229178
  0
LINE
  5
152
100
AcDbEntity
  8
18
  6
ByLayer
 62
  256
370
   -1
100
AcDbLine
 10
324.6833949315325
 20
81.24997162229178
 11
322.1598826936346
 21
79.96940797314787
  0
ENDSEC
  0
SECTION
  2
OBJECTS
  0
DICTIONARY
  5
C
330
0
100
AcDbDictionary
281
    1
  3
ACAD_GROUP
350
D
  0
DICTIONARY
  5
D
330
C
100
AcDbDictionary
281
    1
  0
PLOTSETTINGS
  5
153
100
AcDbPlotSettings
  6
1x1
 40
0
 41
0
 42
0
 43
0
  0
ENDSEC
  0
EOF
